<svg width="40" height="40" fill="none" xmlns="http://www.w3.org/2000/svg"><path d="M0 20c0-6.213 0-9.319 1.015-11.77a13.333 13.333 0 0 1 7.216-7.215C10.681 0 13.788 0 20.001 0c6.212 0 9.318 0 11.769 1.015a13.333 13.333 0 0 1 7.216 7.216C40 10.68 40 13.787 40 20s0 9.319-1.015 11.77a13.333 13.333 0 0 1-7.216 7.215C29.32 40 26.213 40 20 40c-6.212 0-9.319 0-11.769-1.015a13.333 13.333 0 0 1-7.216-7.216C0 29.32 0 26.213 0 20Z" fill="#132D6F"/><path d="M18.12 18.12c.136 1.25.136 2.512 0 3.76a17.194 17.194 0 0 0-10.338 4.95c3.767-3.767 3.767-9.893 0-13.66a17.207 17.207 0 0 0 10.339 4.95Z" fill="#146EF6"/><path d="M13.17 32.218a3.81 3.81 0 0 1-6.46-2.122l-.006-.045a3.881 3.881 0 0 1 .002-1.074 3.803 3.803 0 0 1 1.076-2.147c2.89-2.89 6.56-4.54 10.338-4.95a17.194 17.194 0 0 1-4.95 10.338Z" fill="#FE61D4"/><path d="M21.88 21.88a17.206 17.206 0 0 0 4.95 10.338c-3.767-3.767-9.893-3.767-13.66 0 2.89-2.89 4.541-6.56 4.95-10.338a17.411 17.411 0 0 1 3.76 0Z" fill="#F938C5"/><path d="M32.218 26.83a3.81 3.81 0 1 1-5.388 5.388 17.207 17.207 0 0 1-4.95-10.338c3.779.41 7.448 2.06 10.338 4.95Z" fill="#9B6BFF"/><path d="M26.83 7.782a3.81 3.81 0 1 1 5.388 5.388 17.207 17.207 0 0 1-10.338 4.95 17.208 17.208 0 0 1 4.95-10.338Z" fill="#EBEFFD"/><path d="M26.83 7.782a17.206 17.206 0 0 0-4.95 10.338c-1.25.136-2.512.136-3.76 0a17.194 17.194 0 0 0-4.95-10.338c3.767 3.767 9.893 3.767 13.66 0Z" fill="#44C7FF"/><path d="M13.17 7.782c2.891 2.89 4.541 6.56 4.95 10.338a17.207 17.207 0 0 1-10.338-4.95 3.81 3.81 0 1 1 5.389-5.388Z" fill="#54EAFF"/></svg>