<svg width="113" height="24" fill="none" xmlns="http://www.w3.org/2000/svg"><path d="M11.058 21.886c-.533.438-1.19.79-1.971 1.057a7.446 7.446 0 0 1-2.314.371c-1.334 0-2.505-.257-3.515-.771a5.75 5.75 0 0 1-2.371-2.2c-.553-.953-.829-2.086-.829-3.4s.295-2.448.886-3.4a6.035 6.035 0 0 1 2.371-2.172 6.617 6.617 0 0 1 3.143-.771c1.01 0 1.905.143 2.686.429a6.324 6.324 0 0 1 2.029 1.114l-1.6 2.086c-.305-.248-.705-.477-1.2-.686-.477-.229-1.02-.343-1.63-.343-.647 0-1.237.162-1.77.486a3.715 3.715 0 0 0-1.258 1.343c-.304.552-.457 1.19-.457 1.914 0 1.028.353 1.914 1.057 2.657.705.724 1.62 1.086 2.743 1.086.934 0 1.734-.267 2.4-.8l1.6 2ZM13.34 16.829c0-1.22.285-2.315.857-3.286a6.509 6.509 0 0 1 2.4-2.314c1.028-.572 2.21-.858 3.543-.858 1.352 0 2.524.286 3.514.858a6.078 6.078 0 0 1 2.343 2.314c.552.971.829 2.067.829 3.286 0 1.219-.277 2.323-.83 3.314a6.08 6.08 0 0 1-2.342 2.314c-1.01.572-2.19.857-3.543.857-1.314 0-2.486-.257-3.514-.771a6.082 6.082 0 0 1-2.4-2.257c-.572-.972-.857-2.124-.857-3.457Zm3.228.028c0 .724.153 1.381.457 1.972a3.719 3.719 0 0 0 1.229 1.371 3.4 3.4 0 0 0 1.8.486c1.048 0 1.895-.362 2.543-1.086.647-.743.971-1.657.971-2.743 0-1.086-.324-2-.971-2.743-.648-.743-1.495-1.114-2.543-1.114-.667 0-1.267.181-1.8.543-.514.343-.924.81-1.229 1.4a4.003 4.003 0 0 0-.457 1.914ZM30.188.714h3.2V23h-3.2V.714ZM42.863 23.314c-1.143 0-2.171-.238-3.085-.714-.915-.476-1.648-1.18-2.2-2.114-.534-.934-.8-2.105-.8-3.515 0-1.371.276-2.542.828-3.514.572-.99 1.314-1.752 2.229-2.286a6.002 6.002 0 0 1 3.028-.8c1.124 0 2.029.22 2.715.658.704.419 1.266.923 1.685 1.514l.229-1.629h2.943V23h-3.2v-1.771c-.21.247-.514.533-.914.857-.4.324-.896.61-1.486.857-.572.247-1.229.371-1.972.371Zm.886-2.628c.857 0 1.59-.229 2.2-.686.61-.457 1.038-1.086 1.286-1.886v-2.628a3.362 3.362 0 0 0-1.315-1.8c-.647-.457-1.41-.686-2.285-.686a3.55 3.55 0 0 0-3.143 1.829c-.324.571-.486 1.228-.486 1.971 0 .724.172 1.381.514 1.971.343.59.79 1.058 1.343 1.4.572.343 1.2.515 1.886.515ZM62.997 10.914l2.857 6.629 2.6-6.629h3.143l-5.514 12.8-3.886-8.171-3.543 8.171-5.572-12.8h3.143l2.8 6.429 2.029-4.629-.829-1.8h2.772ZM72.883 16.829c0-1.22.286-2.315.857-3.286a6.51 6.51 0 0 1 2.4-2.314c1.029-.572 2.21-.858 3.543-.858 1.352 0 2.524.286 3.514.858a6.08 6.08 0 0 1 2.343 2.314c.553.971.829 2.067.829 3.286 0 1.219-.276 2.323-.829 3.314a6.081 6.081 0 0 1-2.343 2.314c-1.01.572-2.19.857-3.542.857-1.315 0-2.486-.257-3.515-.771a6.083 6.083 0 0 1-2.4-2.257c-.571-.972-.857-2.124-.857-3.457Zm3.229.028c0 .724.152 1.381.457 1.972a3.72 3.72 0 0 0 1.228 1.371 3.4 3.4 0 0 0 1.8.486c1.048 0 1.896-.362 2.543-1.086.648-.743.972-1.657.972-2.743 0-1.086-.324-2-.972-2.743-.647-.743-1.495-1.114-2.543-1.114-.666 0-1.266.181-1.8.543-.514.343-.923.81-1.228 1.4a4.003 4.003 0 0 0-.457 1.914ZM92.617 10.914l.229 2.8a5.497 5.497 0 0 1 1.4-1.771c.59-.514 1.19-.905 1.8-1.172.628-.266 1.143-.4 1.543-.4l-.143 3.2c-.914-.076-1.714.086-2.4.486-.667.4-1.19.943-1.572 1.629a4.368 4.368 0 0 0-.542 2.114V23h-3.2V10.914h2.885ZM100.865 23V.714h3.2v14.572l6.057-4.657 1.943 1.714-4.4 3.428L112.579 23h-3.714l-3.429-5.486-1.371 1.086V23h-3.2Z" fill="#132D6F"/></svg>